<?xml version="1.0" encoding="utf-8"?>
<!-- Generator: Adobe Illustrator 21.0.0, SVG Export Plug-In . SVG Version: 6.00 Build 0)  -->
<svg version="1.1" id="Layer_1" xmlns="http://www.w3.org/2000/svg" xmlns:xlink="http://www.w3.org/1999/xlink" x="0px" y="0px"
	 viewBox="0 0 512 512" style="enable-background:new 0 0 512 512;" xml:space="preserve">
<style type="text/css">
	.st0{fill:url(#SVGID_1_);}
	.st1{fill:url(#SVGID_2_);}
	.st2{fill:url(#SVGID_3_);}
	.st3{fill:url(#SVGID_4_);}
	.st4{fill:url(#SVGID_5_);}
</style>
<linearGradient id="SVGID_1_" gradientUnits="userSpaceOnUse" x1="209.968" y1="454.159" x2="302.834" y2="361.293">
	<stop  offset="0" style="stop-color:#FF5F3F"/>
	<stop  offset="0.3524" style="stop-color:#FF6142"/>
	<stop  offset="0.5651" style="stop-color:#FF664A"/>
	<stop  offset="0.7406" style="stop-color:#FF6E58"/>
	<stop  offset="0.8951" style="stop-color:#FF7B6C"/>
	<stop  offset="1" style="stop-color:#FF867F"/>
</linearGradient>
<path class="st0" d="M178.8,392.5H334V423H178.8V392.5z"/>
<linearGradient id="SVGID_2_" gradientUnits="userSpaceOnUse" x1="226.8085" y1="150.6992" x2="285.5092" y2="91.9986">
	<stop  offset="0" style="stop-color:#FF5F3F"/>
	<stop  offset="0.3524" style="stop-color:#FF6142"/>
	<stop  offset="0.5651" style="stop-color:#FF664A"/>
	<stop  offset="0.7406" style="stop-color:#FF6E58"/>
	<stop  offset="0.8951" style="stop-color:#FF7B6C"/>
	<stop  offset="1" style="stop-color:#FF867F"/>
</linearGradient>
<path class="st1" d="M256.1,71.6c-12,0-19.1,6.6-19.1,21.4v56.7c0,14.8,7.1,21.4,19.1,21.4c12,0,19.3-6.6,19.3-21.4V93
	C275.4,78.2,268.1,71.6,256.1,71.6L256.1,71.6z"/>
<linearGradient id="SVGID_3_" gradientUnits="userSpaceOnUse" x1="69.7123" y1="311.6563" x2="442.2877" y2="-60.9192">
	<stop  offset="0" style="stop-color:#FF5F3F"/>
	<stop  offset="0.3524" style="stop-color:#FF6142"/>
	<stop  offset="0.5651" style="stop-color:#FF664A"/>
	<stop  offset="0.7406" style="stop-color:#FF6E58"/>
	<stop  offset="0.8951" style="stop-color:#FF7B6C"/>
	<stop  offset="1" style="stop-color:#FF867F"/>
</linearGradient>
<path class="st2" d="M512,15c0-8.3-6.7-15-15-15H15C6.7,0,0,6.7,0,15v226.9h512V15z M181.7,166h-9.2v22.7c0,6.9-8.4,10.3-16.7,10.3
	s-16.7-3.4-16.7-10.3V166H89c-6.2,0-11.1-4.1-11.1-11.6c0-1.7,0.4-4.1,1.7-6.4L129,51c3.2-6.2,8.6-8.6,13.9-8.6
	c5.8,0,16.7,4.9,16.7,12.6c0,1.3-0.4,2.6-1.1,4.1l-37.9,76h18.4v-15c0-7.1,8.4-10.1,16.7-10.1c8.4,0,16.7,3,16.7,10.1v15h9.2
	c6.9,0,10.3,7.7,10.3,15.4C191.9,158.3,186.8,166,181.7,166L181.7,166z M308.8,149.7c0,36.8-23.1,50.5-52.7,50.5
	c-29.5,0-52.5-13.7-52.5-50.5V93c0-36.8,22.9-50.5,52.5-50.5c29.5,0,52.7,13.7,52.7,50.5V149.7z M423.9,165h-9.2v22.7
	c0,6.9-8.4,10.3-16.7,10.3s-16.7-3.4-16.7-10.3V165h-50.1c-6.2,0-11.1-4.1-11.1-11.6c0-1.7,0.4-4.1,1.7-6.4l49.5-97
	c3.2-6.2,8.6-8.6,13.9-8.6c5.8,0,16.7,4.9,16.7,12.6c0,1.3-0.4,2.6-1.1,4.1l-37.9,76h18.4v-15c0-7.1,8.4-10.1,16.7-10.1
	c8.4,0,16.7,3,16.7,10.1v15h9.2c6.9,0,10.3,7.7,10.3,15.4C434.2,157.3,429,165,423.9,165L423.9,165z"/>
<linearGradient id="SVGID_4_" gradientUnits="userSpaceOnUse" x1="105.3698" y1="467.8427" x2="406.6302" y2="166.5822">
	<stop  offset="0" style="stop-color:#FF5F3F"/>
	<stop  offset="0.3524" style="stop-color:#FF6142"/>
	<stop  offset="0.5651" style="stop-color:#FF664A"/>
	<stop  offset="0.7406" style="stop-color:#FF6E58"/>
	<stop  offset="0.8951" style="stop-color:#FF7B6C"/>
	<stop  offset="1" style="stop-color:#FF867F"/>
</linearGradient>
<path class="st3" d="M512,362.5V272H0v90.5H512z M226,315.9c0-8.3,6.7-15,15-15h30c8.3,0,15,6.7,15,15c0,8.3-6.7,15-15,15h-30
	C232.7,331,226,324.2,226,315.9z"/>
<linearGradient id="SVGID_5_" gradientUnits="userSpaceOnUse" x1="184.0364" y1="565.6859" x2="327.9645" y2="421.7578">
	<stop  offset="0" style="stop-color:#FF5F3F"/>
	<stop  offset="0.3524" style="stop-color:#FF6142"/>
	<stop  offset="0.5651" style="stop-color:#FF664A"/>
	<stop  offset="0.7406" style="stop-color:#FF6E58"/>
	<stop  offset="0.8951" style="stop-color:#FF7B6C"/>
	<stop  offset="1" style="stop-color:#FF867F"/>
</linearGradient>
<path class="st4" d="M124.5,502c0,5.5,4.5,10,10,10h243c5.5,0,10-4.5,10-10c0-27.6-22.4-50-50-50h-163
	C146.9,452,124.5,474.4,124.5,502L124.5,502z"/>
</svg>
